<svg xmlns="http://www.w3.org/2000/svg" width="1127" height="645" viewBox="0 0 451 258" font-family="Arial, sans-serif">
  <defs>
    <marker id="ah" viewBox="0 0 8 6" refX="8" refY="3"
      markerWidth="4" markerHeight="3" orient="auto">
      <path d="M0.5,0.5 L7,3 L0.5,5.5" fill="none" stroke="#94A3B8"
        stroke-width="1.2" stroke-linejoin="round" stroke-linecap="round"/>
    </marker>
    <filter id="shadow" x="-6%" y="-8%" width="112%" height="128%">
      <feDropShadow dx="0" dy="0.5" stdDeviation="0.8"
        flood-color="#000" flood-opacity="0.05"/>
    </filter>
  </defs>
  <rect width="451" height="258" fill="#F8F9FB" rx="3"/>
  <text x="225" y="11" text-anchor="middle" font-size="6" font-weight="700" fill="#1E293B">Tranche Protocol Architecture</text>
  <rect x="150" y="16" width="150" height="10" rx="3" fill="#fff" stroke="#E2E5EA" stroke-width="0.4"/>
  <rect x="155" y="18.5" width="5" height="5" rx="2.5" fill="#fff" stroke="#E2E5EA" stroke-width="0.4"/>
  <text x="163" y="22.5" font-size="3.5" fill="#1E293B">Actor</text>
  <rect x="195" y="18.5" width="5" height="5" rx="1.5" fill="#fff" stroke="#E2E5EA" stroke-width="0.4"/>
  <rect x="196" y="19.5" width="0.8" height="3" rx="0.4" fill="#3B82F6"/>
  <text x="203" y="22.5" font-size="3.5" fill="#1E293B">Protocol</text>
  <rect x="243" y="18.5" width="5" height="5" rx="1.5" fill="#fff" stroke="#E2E5EA" stroke-width="0.4"/>
  <rect x="244" y="19.5" width="0.8" height="3" rx="0.4" fill="#F59E0B"/>
  <text x="251" y="22.5" font-size="3.5" fill="#1E293B">External</text>
  <path d="M61.6,46.0 C61.6,70.0 127.5,70.0 127.5,94.0" fill="none" stroke="#94A3B8" stroke-width="0.5" marker-end="url(#ah)"/>
  <path d="M146.8,46.0 C146.8,70.0 127.5,70.0 127.5,94.0" fill="none" stroke="#94A3B8" stroke-width="0.5" marker-end="url(#ah)"/>
  <path d="M232.0,46.0 C232.0,70.0 127.5,70.0 127.5,94.0" fill="none" stroke="#94A3B8" stroke-width="0.5" marker-end="url(#ah)"/>
  <path d="M353.2,46.0 C353.2,70.0 127.5,70.0 127.5,94.0" fill="none" stroke="#94A3B8" stroke-width="0.5" marker-end="url(#ah)"/>
  <path d="M127.5,114.0 C127.5,135.0 100.4,135.0 100.4,156.0" fill="none" stroke="#94A3B8" stroke-width="0.5" marker-end="url(#ah)"/>
  <path d="M127.5,114.0 C127.5,135.0 206.0,135.0 206.0,156.0" fill="none" stroke="#94A3B8" stroke-width="0.5" marker-end="url(#ah)"/>
  <path d="M206.0,176.0 C206.0,197.0 199.6,197.0 199.6,218.0" fill="none" stroke="#94A3B8" stroke-width="0.5" marker-end="url(#ah)"/>
  <path d="M250.4,236.0 C257.0,254.0 265.8,254.0 272.4,232.0" fill="none" stroke="#94A3B8" stroke-width="0.5" marker-end="url(#ah)"/>
  <g filter="url(#shadow)">
    <rect x="30.0" y="32.0" width="63.2" height="14" rx="7" fill="#fff" stroke="#E2E5EA" stroke-width="0.5"/>
    <text x="61.6" y="40.8" text-anchor="middle" font-size="4.8" font-weight="600" fill="#1E293B">Depositor</text>
  </g>
  <g filter="url(#shadow)">
    <rect x="115.2" y="32.0" width="63.2" height="14" rx="7" fill="#fff" stroke="#E2E5EA" stroke-width="0.5"/>
    <text x="146.8" y="40.8" text-anchor="middle" font-size="4.8" font-weight="600" fill="#1E293B">Recipient</text>
  </g>
  <g filter="url(#shadow)">
    <rect x="200.4" y="32.0" width="63.2" height="14" rx="7" fill="#fff" stroke="#E2E5EA" stroke-width="0.5"/>
    <text x="232.0" y="40.8" text-anchor="middle" font-size="4.8" font-weight="600" fill="#1E293B">Arbiter</text>
  </g>
  <g filter="url(#shadow)">
    <rect x="285.6" y="32.0" width="135.2" height="14" rx="7" fill="#fff" stroke="#E2E5EA" stroke-width="0.5"/>
    <text x="353.2" y="40.8" text-anchor="middle" font-size="4.8" font-weight="600" fill="#1E293B">Admin / Roles</text>
  </g>
  <g filter="url(#shadow)">
    <rect x="63.5" y="94.0" width="128.0" height="20" rx="3" fill="#fff" stroke="#E2E5EA" stroke-width="0.5"/>
    <rect x="66.5" y="97.0" width="1.4" height="14" rx="0.6" fill="#3B82F6"/>
    <text x="127.5" y="103.5" text-anchor="middle" font-size="4.8" font-weight="600" fill="#1E293B">TrancheProtocol</text>
    <text x="127.5" y="108.5" text-anchor="middle" font-size="3.5" fill="#64748B">Escrow + dispute state machine</text>
  </g>
  <g filter="url(#shadow)">
    <rect x="65.2" y="156.0" width="70.4" height="20" rx="3" fill="#fff" stroke="#E2E5EA" stroke-width="0.5"/>
    <rect x="68.2" y="159.0" width="1.4" height="14" rx="0.6" fill="#F59E0B"/>
    <text x="100.4" y="165.5" text-anchor="middle" font-size="4.8" font-weight="600" fill="#1E293B">USDC</text>
    <text x="100.4" y="170.5" text-anchor="middle" font-size="3.5" fill="#64748B">Arc precompile</text>
  </g>
  <g filter="url(#shadow)">
    <rect x="157.6" y="156.0" width="96.8" height="20" rx="3" fill="#fff" stroke="#E2E5EA" stroke-width="0.5"/>
    <rect x="160.6" y="159.0" width="1.4" height="14" rx="0.6" fill="#F59E0B"/>
    <text x="206.0" y="165.5" text-anchor="middle" font-size="4.8" font-weight="600" fill="#1E293B">TokenMessengerV2</text>
    <text x="206.0" y="170.5" text-anchor="middle" font-size="3.5" fill="#64748B">CCTP V2 burn</text>
  </g>
  <g filter="url(#shadow)">
    <rect x="148.8" y="218.0" width="101.6" height="20" rx="3" fill="#fff" stroke="#E2E5EA" stroke-width="0.5"/>
    <rect x="151.8" y="221.0" width="1.4" height="14" rx="0.6" fill="#F59E0B"/>
    <text x="199.6" y="227.5" text-anchor="middle" font-size="4.8" font-weight="600" fill="#1E293B">Circle Forwarding</text>
    <text x="199.6" y="232.5" text-anchor="middle" font-size="3.5" fill="#64748B">Attest + relay mint</text>
  </g>
  <g filter="url(#shadow)">
    <rect x="272.4" y="218.0" width="87.2" height="14" rx="7" fill="#fff" stroke="#E2E5EA" stroke-width="0.5"/>
    <text x="316.0" y="226.8" text-anchor="middle" font-size="4.8" font-weight="600" fill="#1E293B">Dest Recipient</text>
  </g>
  <rect x="78.1" y="65.0" width="32.8" height="6.0" rx="1" fill="#F8F9FB"/>
  <text x="94.5" y="70.0" font-size="4" fill="#1E293B" font-weight="500" text-anchor="middle">deposit USDC</text>
  <rect x="117.1" y="65.0" width="40.0" height="6.0" rx="1" fill="#F8F9FB"/>
  <text x="137.1" y="70.0" font-size="4" fill="#1E293B" font-weight="500" text-anchor="middle">claim / dispute</text>
  <rect x="159.7" y="65.0" width="40.0" height="6.0" rx="1" fill="#F8F9FB"/>
  <text x="179.7" y="70.0" font-size="4" fill="#1E293B" font-weight="500" text-anchor="middle">resolve dispute</text>
  <rect x="227.5" y="65.0" width="25.6" height="6.0" rx="1" fill="#F8F9FB"/>
  <text x="240.3" y="70.0" font-size="4" fill="#1E293B" font-weight="500" text-anchor="middle">configure</text>
  <rect x="84.3" y="130.0" width="59.2" height="6.0" rx="1" fill="#F8F9FB"/>
  <text x="113.9" y="135.0" font-size="4" fill="#1E293B" font-weight="500" text-anchor="middle">transferFrom / transfer</text>
  <rect x="146.3" y="128.0" width="56.8" height="6.0" rx="1" fill="#F8F9FB"/>
  <text x="174.7" y="133.0" font-size="4" fill="#1E293B" font-weight="500" text-anchor="middle">depositForBurnWithHook</text>
  <rect x="185.2" y="192.0" width="35.2" height="6.0" rx="1" fill="#F8F9FB"/>
  <text x="202.8" y="197.0" font-size="4" fill="#1E293B" font-weight="500" text-anchor="middle">burn + attest</text>
  <rect x="248.6" y="253.0" width="25.6" height="6.0" rx="1" fill="#F8F9FB"/>
  <text x="261.4" y="258.0" font-size="4" fill="#1E293B" font-weight="500" text-anchor="middle">mint USDC</text>
</svg>